HIERARCHY
ROOT Hips
{
	OFFSET 0.000000 83.214638 0.000000
	CHANNELS 6 Xposition Yposition Zposition Xrotation Yrotation Zrotation
	JOINT Pelvis
	{
		OFFSET 0.000000 0.000000 0.000000
		CHANNELS 3 Xrotation Yrotation Zrotation
		JOINT LeftUpLeg
		{
			OFFSET 8.479700 -4.795502 -0.379100
			CHANNELS 3 Xrotation Yrotation Zrotation
			JOINT LeftLeg
			{
				OFFSET 0.024144 -32.555107 0.112900
				CHANNELS 3 Xrotation Yrotation Zrotation
				JOINT LeftFoot
				{
					OFFSET -0.024144 -32.638630 -3.012600
					CHANNELS 3 Xrotation Yrotation Zrotation
					JOINT LeftToeBase
					{
						OFFSET 0.970200 -13.225400 11.864200
						CHANNELS 3 Xrotation Yrotation Zrotation
						End Site
						{
							OFFSET 0.000000 12.319262 0.000000
						}
					}
					JOINT LFootTongue
					{
						OFFSET 1.142400 -1.059800 6.665200
						CHANNELS 3 Xrotation Yrotation Zrotation
						End Site
						{
							OFFSET 0.000000 12.319262 0.000000
						}
					}
				}
				JOINT LeftPantLeg
				{
					OFFSET 0.918482 -16.533964 -2.284700
					CHANNELS 3 Xrotation Yrotation Zrotation
					End Site
					{
						OFFSET 0.350399 24.744368 0.000000
					}
				}
			}
		}
		JOINT RightUpLeg
		{
			OFFSET -8.479700 -4.795502 -0.379100
			CHANNELS 3 Xrotation Yrotation Zrotation
			JOINT RightLeg
			{
				OFFSET -0.023144 -32.555092 0.112900
				CHANNELS 3 Xrotation Yrotation Zrotation
				JOINT RightFoot
				{
					OFFSET 0.023144 -32.638641 -3.012700
					CHANNELS 3 Xrotation Yrotation Zrotation
					JOINT RightToeBase
					{
						OFFSET -0.970200 -13.225400 11.864200
						CHANNELS 3 Xrotation Yrotation Zrotation
						End Site
						{
							OFFSET 0.000000 12.319244 0.000000
						}
					}
					JOINT RFootTongue
					{
						OFFSET -1.142200 -1.059800 6.665200
						CHANNELS 3 Xrotation Yrotation Zrotation
						End Site
						{
							OFFSET 0.000000 12.319243 0.000000
						}
					}
				}
				JOINT RightPantLeg
				{
					OFFSET -0.919482 -16.533978 -2.284800
					CHANNELS 3 Xrotation Yrotation Zrotation
					End Site
					{
						OFFSET -0.350400 24.744419 0.000000
					}
				}
			}
		}
	}
	JOINT Spine
	{
		OFFSET 0.000000 7.722000 1.166200
		CHANNELS 3 Xrotation Yrotation Zrotation
		JOINT Spine1
		{
			OFFSET 0.000000 12.024101 0.248800
			CHANNELS 3 Xrotation Yrotation Zrotation
			JOINT Spine2
			{
				OFFSET 0.000000 11.502998 -0.491200
				CHANNELS 3 Xrotation Yrotation Zrotation
				JOINT Neck
				{
					OFFSET 0.000000 18.430702 -3.123100
					CHANNELS 3 Xrotation Yrotation Zrotation
					JOINT Head
					{
						OFFSET 0.000000 9.051102 1.034000
						CHANNELS 3 Xrotation Yrotation Zrotation
						JOINT HairB
						{
							OFFSET 0.208400 24.786102 24.822300
							CHANNELS 3 Xrotation Yrotation Zrotation
							End Site
							{
								OFFSET 0.000000 32.263779 0.000000
							}
						}
						JOINT HairA
						{
							OFFSET -7.081100 24.428299 23.196600
							CHANNELS 3 Xrotation Yrotation Zrotation
							End Site
							{
								OFFSET 0.000000 32.263779 0.000000
							}
						}
						JOINT Hat
						{
							OFFSET 16.728800 15.048294 -15.439601
							CHANNELS 3 Xrotation Yrotation Zrotation
							End Site
							{
								OFFSET 0.000000 32.263779 0.000000
							}
						}
					}
				}
				JOINT LeftShoulder
				{
					OFFSET 6.197800 13.665199 -4.064700
					CHANNELS 3 Xrotation Yrotation Zrotation
					JOINT LeftArm
					{
						OFFSET 7.778100 -0.187103 -1.709300
						CHANNELS 3 Xrotation Yrotation Zrotation
						JOINT LeftForeArm
						{
							OFFSET 22.049376 0.000000 0.000000
							CHANNELS 3 Xrotation Yrotation Zrotation
							JOINT LeftHand
							{
								OFFSET 23.009392 0.000000 0.000000
								CHANNELS 3 Xrotation Yrotation Zrotation
								JOINT LeftHandThumb1
								{
									OFFSET 3.507191 -2.063065 3.133727
									CHANNELS 3 Xrotation Yrotation Zrotation
									JOINT LeftHandThumb2
									{
										OFFSET 3.101337 -1.790558 1.790558
										CHANNELS 3 Xrotation Yrotation Zrotation
										JOINT LeftHandThumb3
										{
											OFFSET 3.058640 -1.765907 1.765906
											CHANNELS 3 Xrotation Yrotation Zrotation
											End Site
											{
												OFFSET -0.415260 3.926476 -0.049563
											}
										}
									}
								}
								JOINT LeftHandIndex1
								{
									OFFSET 11.334419 -0.901459 3.706815
									CHANNELS 3 Xrotation Yrotation Zrotation
									JOINT LeftHandIndex2
									{
										OFFSET 3.283112 0.000000 0.000000
										CHANNELS 3 Xrotation Yrotation Zrotation
										JOINT LeftHandIndex3
										{
											OFFSET 3.323853 0.000000 0.000000
											CHANNELS 3 Xrotation Yrotation Zrotation
											End Site
											{
												OFFSET -1.135597 3.097809 0.402452
											}
										}
									}
								}
								JOINT LeftHandMiddle1
								{
									OFFSET 11.335861 0.000000 0.000000
									CHANNELS 3 Xrotation Yrotation Zrotation
									JOINT LeftHandMiddle2
									{
										OFFSET 3.410492 0.000000 0.000000
										CHANNELS 3 Xrotation Yrotation Zrotation
										JOINT LeftHandMiddle3
										{
											OFFSET 3.312172 0.000000 0.000000
											CHANNELS 3 Xrotation Yrotation Zrotation
											End Site
											{
												OFFSET -1.150200 3.080154 0.400270
											}
										}
									}
								}
								JOINT LeftHandRing1
								{
									OFFSET 11.514786 -0.013176 -3.003090
									CHANNELS 3 Xrotation Yrotation Zrotation
									JOINT LeftHandRing2
									{
										OFFSET 3.053307 0.000000 0.000000
										CHANNELS 3 Xrotation Yrotation Zrotation
										JOINT LeftHandRing3
										{
											OFFSET 3.295807 0.000000 0.000000
											CHANNELS 3 Xrotation Yrotation Zrotation
											End Site
											{
												OFFSET -1.281006 3.013344 0.375733
											}
										}
									}
								}
								JOINT LeftHandPinky1
								{
									OFFSET 10.518692 -0.960396 -5.730441
									CHANNELS 3 Xrotation Yrotation Zrotation
									JOINT LeftHandPinky2
									{
										OFFSET 2.861649 0.000000 0.000000
										CHANNELS 3 Xrotation Yrotation Zrotation
										JOINT LeftHandPinky3
										{
											OFFSET 2.863380 0.000000 0.000000
											CHANNELS 3 Xrotation Yrotation Zrotation
											End Site
											{
												OFFSET -0.843597 2.711159 0.369971
											}
										}
									}
								}
							}
							JOINT LSleeve
							{
								OFFSET 6.676277 -0.344902 -1.011730
								CHANNELS 3 Xrotation Yrotation Zrotation
								End Site
								{
									OFFSET 0.000000 14.885353 0.000000
								}
							}
						}
					}
				}
				JOINT RightShoulder
				{
					OFFSET -6.197800 13.665199 -4.064700
					CHANNELS 3 Xrotation Yrotation Zrotation
					JOINT RightArm
					{
						OFFSET -7.778100 -0.187103 -1.709300
						CHANNELS 3 Xrotation Yrotation Zrotation
						JOINT RightForeArm
						{
							OFFSET -22.049376 0.000000 0.000000
							CHANNELS 3 Xrotation Yrotation Zrotation
							JOINT RightHand
							{
								OFFSET -23.009392 0.000000 0.000000
								CHANNELS 3 Xrotation Yrotation Zrotation
								JOINT RightHandThumb1
								{
									OFFSET -3.507191 -2.063065 3.133727
									CHANNELS 3 Xrotation Yrotation Zrotation
									JOINT RightHandThumb2
									{
										OFFSET -3.101337 -1.790558 1.790558
										CHANNELS 3 Xrotation Yrotation Zrotation
										JOINT RightHandThumb3
										{
											OFFSET -3.058640 -1.765907 1.765906
											CHANNELS 3 Xrotation Yrotation Zrotation
											End Site
											{
												OFFSET 0.415260 3.926476 -0.049563
											}
										}
									}
								}
								JOINT RightHandIndex1
								{
									OFFSET -11.334419 -0.901459 3.706815
									CHANNELS 3 Xrotation Yrotation Zrotation
									JOINT RightHandIndex2
									{
										OFFSET -3.283112 0.000000 0.000000
										CHANNELS 3 Xrotation Yrotation Zrotation
										JOINT RightHandIndex3
										{
											OFFSET -3.323853 0.000000 0.000000
											CHANNELS 3 Xrotation Yrotation Zrotation
											End Site
											{
												OFFSET 1.135597 3.097809 0.402452
											}
										}
									}
								}
								JOINT RightHandMiddle1
								{
									OFFSET -11.335861 0.000000 0.000000
									CHANNELS 3 Xrotation Yrotation Zrotation
									JOINT RightHandMiddle2
									{
										OFFSET -3.410492 0.000000 0.000000
										CHANNELS 3 Xrotation Yrotation Zrotation
										JOINT RightHandMiddle3
										{
											OFFSET -3.312172 0.000000 0.000000
											CHANNELS 3 Xrotation Yrotation Zrotation
											End Site
											{
												OFFSET 1.150200 3.080154 0.400270
											}
										}
									}
								}
								JOINT RightHandRing1
								{
									OFFSET -11.514786 -0.013176 -3.003090
									CHANNELS 3 Xrotation Yrotation Zrotation
									JOINT RightHandRing2
									{
										OFFSET -3.053307 0.000000 0.000000
										CHANNELS 3 Xrotation Yrotation Zrotation
										JOINT RightHandRing3
										{
											OFFSET -3.295807 0.000000 0.000000
											CHANNELS 3 Xrotation Yrotation Zrotation
											End Site
											{
												OFFSET 1.281006 3.013344 0.375733
											}
										}
									}
								}
								JOINT RightHandPinky1
								{
									OFFSET -10.518692 -0.960396 -5.730441
									CHANNELS 3 Xrotation Yrotation Zrotation
									JOINT RightHandPinky2
									{
										OFFSET -2.861649 0.000000 0.000000
										CHANNELS 3 Xrotation Yrotation Zrotation
										JOINT RightHandPinky3
										{
											OFFSET -2.863380 0.000000 0.000000
											CHANNELS 3 Xrotation Yrotation Zrotation
											End Site
											{
												OFFSET 0.843597 2.711159 0.369971
											}
										}
									}
								}
							}
							JOINT RSleeve
							{
								OFFSET -6.676277 -0.344902 -1.011730
								CHANNELS 3 Xrotation Yrotation Zrotation
								End Site
								{
									OFFSET 0.000000 14.885353 0.000000
								}
							}
						}
					}
				}
				JOINT Backpack
				{
					OFFSET 0.000000 -2.471497 36.677502
					CHANNELS 3 Xrotation Yrotation Zrotation
					End Site
					{
						OFFSET 0.000000 20.427315 0.000000
					}
				}
				JOINT Hood
				{
					OFFSET 0.000000 18.754097 -10.431000
					CHANNELS 3 Xrotation Yrotation Zrotation
					JOINT Hood1
					{
						OFFSET 0.000000 -5.011002 -7.685901
						CHANNELS 3 Xrotation Yrotation Zrotation
						End Site
						{
							OFFSET 0.000000 9.175140 0.000000
						}
					}
				}
				JOINT LHoodieString
				{
					OFFSET 5.250500 16.397697 3.089900
					CHANNELS 3 Xrotation Yrotation Zrotation
					JOINT LHoodieString1
					{
						OFFSET 0.257700 -6.364304 3.694600
						CHANNELS 3 Xrotation Yrotation Zrotation
						JOINT LHoodieString2
						{
							OFFSET 0.000000 -9.643799 2.679100
							CHANNELS 3 Xrotation Yrotation Zrotation
							End Site
							{
								OFFSET 0.000000 10.009018 0.000000
							}
						}
					}
				}
				JOINT RHoodieString
				{
					OFFSET -5.250500 16.397697 3.089900
					CHANNELS 3 Xrotation Yrotation Zrotation
					JOINT RHoodieString1
					{
						OFFSET -0.257700 -6.364304 3.694600
						CHANNELS 3 Xrotation Yrotation Zrotation
						JOINT RHoodieString2
						{
							OFFSET 0.000000 -9.643799 2.679100
							CHANNELS 3 Xrotation Yrotation Zrotation
							End Site
							{
								OFFSET 0.000000 10.009018 0.000000
							}
						}
					}
				}
			}
			JOINT LBackpack_Strap
			{
				OFFSET 15.223200 -7.719803 -6.610900
				CHANNELS 3 Xrotation Yrotation Zrotation
				End Site
				{
					OFFSET 0.000000 16.040596 0.000000
				}
			}
			JOINT RBackpack_Strap
			{
				OFFSET -15.223000 -7.719803 -6.610900
				CHANNELS 3 Xrotation Yrotation Zrotation
				End Site
				{
					OFFSET 0.000000 16.040596 0.000000
				}
			}
		}
	}
	JOINT BoyFacialAnim_Joint
	{
		OFFSET 1.000000 -82.208099 -1.550900
		CHANNELS 3 Xrotation Yrotation Zrotation
		End Site
		{
			OFFSET 0.000000 30.012791 0.000000
		}
	}
}
MOTION
Frames: 4
Frame Time: 0.033333
5.756075 80.540710 144.213196 63.967631 -69.173540 60.789121 -0.000001 0.000000 -0.000000 -41.245593 2.949119 3.302849 30.623136 9.760503 -0.721934 -6.714891 12.910924 -0.796361 -0.000000 0.000001 0.000000 -0.000000 0.000001 0.000000 -0.000001 0.000004 -0.000000 -36.332051 -6.235579 2.951883 17.609437 -3.129313 7.070405 -0.819615 0.373499 -10.246512 -0.000000 0.000000 0.000000 -0.000000 0.000000 0.000000 -0.000000 0.000000 0.000001 9.058236 -1.217013 1.042755 18.131150 -2.594370 1.818438 18.131178 -2.594373 1.818441 3.778583 -0.645490 -0.046514 0.461636 -9.480104 1.989697 0.000001 0.000001 0.000000 0.000001 0.000001 0.000000 0.000001 0.000001 0.000000 2.074018 -23.851084 -1.535510 -27.095728 37.325823 -38.892480 5.036504 -103.409945 4.899860 -39.252694 -28.032164 -8.023276 10.349672 2.008753 24.473843 7.358153 43.244789 -15.909980 -0.000002 -0.000001 -0.000002 2.354626 8.013652 -50.167838 3.531896 5.727092 -70.986928 -0.000001 -0.000000 -0.000002 3.079798 10.218368 -60.016715 2.774885 5.572279 -64.275447 0.000002 -0.000000 0.000000 3.417368 10.248633 -71.584617 2.666839 4.373471 -55.212893 0.000001 0.000000 -0.000002 5.455699 15.898676 -69.455811 2.652940 4.880023 -66.536889 -0.000000 0.000001 -0.000000 -0.000000 0.000001 0.000000 1.805534 16.152378 0.718382 -18.590805 -22.746914 50.640549 -176.950298 63.854127 177.260894 -11.186061 -19.933127 -0.641638 -1.904847 8.438634 -26.842001 6.089904 -6.359742 -13.219527 -0.000003 0.000004 -0.000002 0.655672 1.908898 -3.506274 0.135414 -1.903724 12.144569 -0.000003 -0.000000 0.000004 0.128736 -4.866365 6.615261 0.247883 -2.418214 17.829575 0.000000 -0.000001 0.000005 0.301703 -6.253641 16.163303 0.184815 -1.274841 10.749455 0.000001 -0.000000 0.000000 0.620592 -7.735773 15.261303 0.121537 -1.688433 19.227075 -0.000004 -0.000001 0.000002 -0.000003 -0.000000 -0.000001 0.000001 0.000000 -0.000000 0.000001 0.000000 -0.000000 0.000001 0.000000 -0.000000 0.000001 0.000000 -0.000000 0.000001 0.000000 -0.000000 0.000001 -0.000000 -0.000000 0.000001 0.000000 -0.000000 0.000001 0.000000 -0.000000 0.000001 -0.000000 -0.000000 0.000000 0.000000 -0.000000 0.000000 0.000000 -0.000000 -0.000001 0.000000 -0.000000 
5.754517 80.543106 144.211151 63.785299 -69.173806 60.625292 -0.000001 -0.000000 0.000000 -41.197550 2.937899 3.259552 30.590952 9.760065 -0.701402 -6.712552 12.892383 -0.829962 -0.000000 -0.000000 -0.000000 -0.000000 -0.000000 -0.000000 -0.000000 -0.000001 0.000000 -36.307257 -6.256837 2.911638 17.627660 -3.155301 7.069545 -0.816162 0.370915 -10.237773 -0.000000 -0.000000 -0.000000 -0.000000 -0.000000 -0.000000 -0.000000 0.000000 -0.000000 9.049992 -1.223625 1.044544 18.114862 -2.606079 1.823801 18.114848 -2.606094 1.823801 3.785451 -0.636763 -0.051587 0.535439 -9.414020 2.022760 0.000000 0.000001 -0.000000 0.000000 0.000001 -0.000000 0.000000 0.000001 -0.000000 2.073659 -23.828887 -1.547829 -27.053257 37.218759 -38.927693 5.055338 -103.353951 4.919321 -39.226903 -27.951682 -8.044848 10.346864 2.062005 24.489537 7.396904 43.291399 -15.925764 -0.000001 -0.000004 -0.000001 2.358302 8.017166 -50.223662 3.536707 5.728729 -71.042724 -0.000002 0.000000 -0.000000 3.084987 10.221036 -60.072873 2.779303 5.574571 -64.331209 0.000003 0.000000 0.000000 3.421814 10.250519 -71.640748 2.671250 4.375864 -55.268549 -0.000001 -0.000001 -0.000002 5.460537 15.900366 -69.512474 2.657010 4.883277 -66.592541 -0.000000 0.000002 -0.000003 0.000003 0.000002 0.000001 1.800175 16.171052 0.736258 -18.568954 -22.740396 50.618143 -176.944848 63.946615 177.253873 -11.185837 -19.902519 -0.636774 -1.904984 8.361109 -26.848821 6.082677 -6.148563 -13.178968 -0.000001 0.000004 0.000005 0.656435 1.910162 -3.506802 0.135400 -1.903672 12.143943 -0.000001 0.000001 0.000004 0.131416 -4.900667 6.654740 0.250643 -2.426749 17.928630 0.000002 0.000001 -0.000000 0.302007 -6.255780 16.204675 0.184488 -1.275291 10.747958 0.000001 0.000002 -0.000001 0.621003 -7.736262 15.261626 0.121817 -1.687757 19.227415 -0.000002 0.000001 0.000000 -0.000002 0.000000 -0.000002 0.000001 -0.000000 0.000000 0.000001 -0.000000 0.000000 0.000001 -0.000000 0.000000 0.000001 -0.000000 0.000000 0.000001 -0.000000 0.000000 0.000001 0.000000 0.000000 0.000001 -0.000000 0.000000 0.000001 -0.000000 0.000000 0.000001 0.000000 0.000000 -0.000001 0.000000 0.000000 -0.000001 0.000000 0.000000 -0.000001 -0.000000 0.000000 
5.752663 80.540703 144.216095 63.650430 -69.181156 60.496789 -0.000000 0.000001 -0.000000 -41.167852 2.925850 3.231944 30.601426 9.759304 -0.683349 -6.738257 12.879933 -0.891061 -0.000000 0.000000 -0.000000 -0.000000 0.000000 -0.000000 -0.000000 0.000003 -0.000000 -36.297015 -6.276738 2.880268 17.670487 -3.179901 7.070175 -0.822013 0.367994 -10.224784 -0.000000 0.000000 -0.000000 -0.000000 0.000000 -0.000000 -0.000000 0.000000 0.000000 9.039317 -1.226715 1.045549 18.093525 -2.611098 1.826865 18.093543 -2.611100 1.826868 3.793835 -0.633858 -0.054422 0.567619 -9.408801 2.042476 -0.000002 -0.000000 -0.000000 -0.000002 -0.000000 -0.000000 -0.000002 -0.000000 -0.000000 2.065689 -23.832034 -1.574087 -27.030098 37.135267 -38.945144 5.076245 -103.292193 4.940940 -39.181647 -27.887661 -8.075801 10.344072 2.115464 24.505308 7.435770 43.338148 -15.941653 -0.000001 0.000002 -0.000001 2.362031 8.020659 -50.279656 3.541504 5.730382 -71.098711 -0.000002 -0.000001 0.000001 3.090241 10.223688 -60.129249 2.783711 5.576858 -64.387148 0.000002 -0.000000 0.000000 3.426213 10.252430 -71.697042 2.675674 4.378302 -55.324379 0.000000 0.000000 -0.000004 5.465398 15.902065 -69.569288 2.661109 4.886521 -66.648378 0.000002 0.000001 -0.000000 0.000002 -0.000000 0.000002 1.792217 16.186345 0.765617 -18.550669 -22.736590 50.591638 -176.941419 64.042681 177.248545 -11.174778 -19.855095 -0.678650 -1.905242 8.284457 -26.855706 6.075326 -5.937207 -13.138406 -0.000000 0.000001 -0.000000 0.657177 1.911437 -3.507301 0.135371 -1.903629 12.143336 0.000001 -0.000000 0.000005 0.134107 -4.935000 6.694281 0.253413 -2.435282 18.027741 0.000001 0.000002 0.000002 0.302307 -6.257955 16.246100 0.184156 -1.275749 10.746420 0.000000 -0.000001 0.000004 0.621369 -7.736770 15.261923 0.122105 -1.687052 19.227788 -0.000001 -0.000001 0.000000 0.000001 0.000001 -0.000002 -0.000000 -0.000000 -0.000000 -0.000000 -0.000000 -0.000000 -0.000000 -0.000000 -0.000000 -0.000000 -0.000000 -0.000000 -0.000000 -0.000000 0.000000 -0.000000 -0.000000 -0.000000 -0.000000 -0.000000 -0.000000 -0.000000 -0.000000 0.000000 -0.000000 -0.000000 -0.000000 -0.000001 0.000000 -0.000000 -0.000001 0.000000 -0.000000 -0.000000 0.000001 -0.000000 
5.752090 80.536110 144.226227 63.550621 -69.199399 60.381167 0.000002 -0.000001 0.000001 -41.146794 2.917042 3.229935 30.638460 9.758332 -0.664595 -6.783961 12.866839 -0.963853 0.000000 -0.000000 -0.000000 0.000000 -0.000000 0.000000 0.000001 -0.000001 0.000000 -36.278058 -6.284097 2.884236 17.709171 -3.203361 7.072366 -0.842375 0.369671 -10.218720 -0.000000 -0.000000 -0.000000 -0.000000 -0.000000 -0.000000 -0.000000 0.000000 0.000001 9.031370 -1.228973 1.046776 18.077750 -2.614388 1.830019 18.077738 -2.614371 1.830002 3.800853 -0.633836 -0.055599 0.584573 -9.415355 2.049110 0.000001 -0.000001 0.000000 0.000001 -0.000001 0.000000 0.000001 -0.000001 0.000000 2.056887 -23.821987 -1.611816 -27.021144 37.039747 -38.951599 5.086219 -103.258103 4.951356 -39.172060 -27.872624 -8.051664 10.341272 2.169072 24.521142 7.474927 43.385075 -15.957685 0.000000 -0.000000 -0.000001 2.365783 8.024145 -50.335878 3.546333 5.732042 -71.154862 -0.000004 -0.000001 -0.000000 3.095509 10.226371 -60.185817 2.788234 5.579126 -64.443292 0.000002 -0.000001 0.000000 3.430663 10.254352 -71.753548 2.680099 4.380696 -55.380410 0.000004 -0.000001 0.000003 5.470312 15.903786 -69.626341 2.665241 4.889784 -66.704433 0.000001 0.000000 -0.000000 0.000000 0.000001 0.000000 1.785139 16.218976 0.791322 -18.556050 -22.739687 50.557996 -176.937744 64.149874 177.242726 -11.155021 -19.769752 -0.732490 -1.905541 8.208673 -26.862603 6.067885 -5.725776 -13.097843 -0.000000 0.000000 0.000004 0.657938 1.912706 -3.507760 0.135350 -1.903578 12.142743 -0.000000 0.000001 0.000006 0.136860 -4.969351 6.733841 0.256223 -2.443804 18.126880 0.000002 -0.000001 0.000003 0.302599 -6.260155 16.287576 0.183843 -1.276232 10.744881 0.000002 0.000003 -0.000005 0.621748 -7.737284 15.262227 0.122396 -1.686343 19.228128 -0.000002 -0.000000 0.000002 -0.000003 -0.000000 -0.000001 -0.000001 0.000000 0.000000 -0.000001 0.000000 0.000000 -0.000001 0.000000 0.000000 -0.000001 0.000000 0.000000 -0.000001 0.000000 0.000000 -0.000001 0.000000 -0.000000 -0.000001 0.000000 0.000000 -0.000001 0.000000 0.000000 -0.000001 0.000000 -0.000000 0.000002 0.000000 -0.000000 0.000002 0.000000 -0.000000 0.000002 -0.000001 0.000001 
